<svg xmlns="http://www.w3.org/2000/svg" xmlns:xlink="http://www.w3.org/1999/xlink" width="232" height="313"><defs><linearGradient id="a" x1=".106" y1=".501" x2="1.105" y2=".501" gradientUnits="objectBoundingBox"><stop offset="0" stop-color="#c3bae9"/><stop offset=".024" stop-color="#b8aee6"/><stop offset=".184" stop-color="#ada2e2"/><stop offset="1" stop-color="#7b67d0"/></linearGradient><linearGradient id="c" x1="1" y1=".56" x2="0" y2=".5" xlink:href="#a"/><linearGradient id="d" x1=".887" y1=".5" x2="-.08" y2=".5" gradientUnits="objectBoundingBox"><stop offset="0" stop-color="#c3bae9"/><stop offset=".068" stop-color="#b8aee6"/><stop offset=".184" stop-color="#ada2e2"/><stop offset="1" stop-color="#7b67d0"/></linearGradient><clipPath id="b"><rect data-name="Rectangle 38" width="232" height="313" rx="3" transform="translate(713 1409)" fill="#f7f7f7"/></clipPath></defs><g data-name="Mask Group 2" transform="translate(-713 -1409)" clip-path="url(#b)"><g data-name="car" transform="translate(715 1409)"><rect data-name="Rectangle 6" width="42.16" height="21.73" rx="10.76" transform="translate(417.6 150.84)" fill="#d5d3d0"/><path data-name="Path 227" d="M449 173.08h-20.64a11.27 11.27 0 01-11.26-11.26v-.22a11.27 11.27 0 0111.26-11.26H449a11.27 11.27 0 0111.26 11.26v.22A11.27 11.27 0 01449 173.08zm-20.64-21.73a10.27 10.27 0 00-10.26 10.25v.22a10.27 10.27 0 0010.26 10.26H449a10.27 10.27 0 0010.26-10.26v-.22A10.27 10.27 0 00449 151.34z" fill="#505b65"/><circle data-name="Ellipse 6" cx="3.69" cy="3.69" r="3.69" transform="translate(421.85 161.02)" fill="#f7f2ed"/><path data-name="Path 228" d="M425.54 168.9a4.19 4.19 0 114.19-4.19 4.19 4.19 0 01-4.19 4.19zm0-7.38a3.19 3.19 0 103.19 3.19 3.19 3.19 0 00-3.19-3.19z" fill="#505b65"/><path data-name="Path 229" d="M410.1 187.44a2 2 0 01-1.6-3.19l15.43-20.73a2 2 0 013.21 2.39l-15.43 20.73a2 2 0 01-1.61.8z" fill="#505b65"/><rect data-name="Rectangle 7" width="42.16" height="21.73" rx="10.76" transform="rotate(14.98 -548.405 87.559)" fill="#d5d3d0"/><path data-name="Path 230" d="M28.576 174.643l-19.938-5.346a11.271 11.271 0 01-7.96-13.794l.056-.212a11.271 11.271 0 0113.794-7.961l19.938 5.346a11.271 11.271 0 017.96 13.793l-.056.213a11.271 11.271 0 01-13.794 7.96zM14.27 148.296A10.271 10.271 0 001.7 155.55l-.057.212a10.271 10.271 0 007.254 12.569l19.938 5.346a10.271 10.271 0 0012.569-7.254l.057-.213a10.271 10.271 0 00-7.254-12.568z" fill="#505b65"/><circle data-name="Ellipse 7" cx="3.69" cy="3.69" r="3.69" transform="translate(31.03 160.28)" fill="#f7f2ed"/><path data-name="Path 231" d="M34.72 168.16a4.19 4.19 0 114.2-4.16 4.19 4.19 0 01-4.2 4.16zm0-7.38a3.2 3.2 0 102.27.944 3.19 3.19 0 00-2.27-.944z" fill="#505b65"/><path data-name="Path 232" d="M50.16 186.7a2 2 0 01-1.61-.81l-15.43-20.72a2 2 0 113.21-2.39l15.43 20.73a2 2 0 01-1.6 3.19z" fill="#505b65"/><path data-name="Path 233" d="M417.81 182.95H42.45L80.54 15.2A18.88 18.88 0 0199 .5h262.31a18.88 18.88 0 0118.41 14.7z" fill="url(#a)"/><path data-name="Path 234" d="M418.43 183.45H41.83L80.06 15.09A19.28 19.28 0 0199 0h262.31a19.28 19.28 0 0118.9 15.09zm-375.35-1h374.1l-38-167.14A18.28 18.28 0 00361.31 1H99a18.28 18.28 0 00-18 14.31z" fill="#505b65"/><path data-name="Path 235" d="M406 173.51H54.27L89.75 17.29A9.38 9.38 0 0199 9.94h262.31a9.39 9.39 0 019.2 7.35z" fill="#d5d3d0"/><path data-name="Path 236" d="M406.61 174h-353L89.26 17.18A9.88 9.88 0 0199 9.44h262.31a9.88 9.88 0 019.69 7.74zM54.9 173h350.46L370 17.4a8.89 8.89 0 00-8.71-7H99a8.88 8.88 0 00-8.71 7z" fill="#505b65"/><path data-name="Path 237" d="M116.9 105.8a10 10 0 01-9.75-12.21L121.58 30a10 10 0 019.75-7.79h197.59a10 10 0 019.76 7.79l14.43 63.57a10 10 0 01-9.75 12.21z" fill="#f7f2ed"/><path data-name="Path 238" d="M437.78 244.26v-51.87a18.88 18.88 0 00-18.88-18.88H41.35a18.88 18.88 0 00-18.88 18.88v51.87z" fill="url(#a)"/><path data-name="Path 239" d="M438.28 244.76H22v-52.37A19.4 19.4 0 0141.35 173h377.56a19.4 19.4 0 0119.38 19.38zm-415.28-1h414.28v-51.37A18.4 18.4 0 00418.91 174H41.35A18.4 18.4 0 0023 192.39z" fill="#505b65"/><path data-name="Path 240" d="M347.8 205.56H112.46A20 20 0 0192.75 189l-2.68-15.47h280.12L367.51 189a20 20 0 01-19.71 16.56z" fill="url(#a)"/><path data-name="Path 241" d="M347.8 206.06H112.46a20.46 20.46 0 01-20.2-17L89.47 173h281.32L368 189.06a20.46 20.46 0 01-20.2 17zM90.66 174l2.58 14.88a19.46 19.46 0 0019.21 16.17H347.8a19.46 19.46 0 0019.2-16.16l2.6-14.89z" fill="#505b65"/><path data-name="Path 242" d="M432.78 268.07H27.48a5 5 0 01-5-5v-19.28h415.3v19.28a5 5 0 01-5 5z" fill="#d5d3d0"/><path data-name="Path 243" d="M432.78 268.57H27.48a5.51 5.51 0 01-5.5-5.5v-19.78h416.3v19.78a5.51 5.51 0 01-5.5 5.5zM23 244.29v18.78a4.5 4.5 0 004.5 4.5h405.28a4.5 4.5 0 004.5-4.5v-18.78z" fill="#505b65"/><path data-name="Rectangle 8" fill="#a6a9ab" d="M36.16 268.54h49.08v44.39H36.16z"/><path data-name="Path 244" d="M85.74 313.43H35.66V268h50.08zm-49.08-1h48.08V269H36.66z" fill="#505b65"/><path data-name="Rectangle 9" fill="#a6a9ab" d="M375.02 268.54h49.08v44.39h-49.08z"/><path data-name="Path 245" d="M424.6 313.43h-50.08V268h50.08zm-49.08-1h48.08V269h-48.08z" fill="#505b65"/><rect data-name="Rectangle 10" width="111.14" height="29" rx="5" transform="translate(174.56 241.43)" fill="#f7f2ed"/><path data-name="Path 246" d="M280.7 270.93H179.56a5.51 5.51 0 01-5.5-5.5v-19a5.51 5.51 0 015.5-5.5H280.7a5.51 5.51 0 015.5 5.5v19a5.51 5.51 0 01-5.5 5.5zm-101.14-29a4.5 4.5 0 00-4.5 4.5v19a4.5 4.5 0 004.5 4.5H280.7a4.5 4.5 0 004.5-4.5v-19a4.5 4.5 0 00-4.5-4.5z" fill="#505b65"/><rect data-name="Rectangle 11" width="65.13" height="35.4" rx="17.52" transform="translate(368.16 179.51)" fill="#f4a110"/><path data-name="Path 247" d="M415.76 215.4h-30.08a18 18 0 01-18-18v-.4a18 18 0 0118-18h30.09a18 18 0 0118 18v.35a18 18 0 01-18.01 18.05zM385.68 180a17 17 0 00-17 17v.35a17 17 0 0017 17h30.09a17 17 0 0017-17V197a17 17 0 00-17-17z" fill="#505b65"/><rect data-name="Rectangle 12" width="35.87" height="16.05" rx="5" transform="translate(382.79 219.41)" fill="#f7f2ed"/><path data-name="Path 248" d="M413.65 236h-25.86a5.51 5.51 0 01-5.5-5.5v-6a5.51 5.51 0 015.5-5.5h25.87a5.51 5.51 0 015.5 5.5v6a5.51 5.51 0 01-5.51 5.5zm-25.87-16a4.5 4.5 0 00-4.5 4.5v6a4.5 4.5 0 004.5 4.5h25.87a4.5 4.5 0 004.5-4.5v-6a4.5 4.5 0 00-4.5-4.5z" fill="#505b65"/><rect data-name="Rectangle 13" width="29.87" height="10.05" rx="2" transform="translate(385.79 222.41)" fill="#f4a110"/><path data-name="Path 249" d="M413.65 233h-25.86a2.5 2.5 0 01-2.5-2.5v-6a2.5 2.5 0 012.5-2.5h25.87a2.5 2.5 0 012.5 2.5v6a2.5 2.5 0 01-2.51 2.5zm-25.87-10a1.5 1.5 0 00-1.5 1.5v6a1.5 1.5 0 001.5 1.5h25.87a1.5 1.5 0 001.5-1.5v-6a1.5 1.5 0 00-1.5-1.5z" fill="#505b65"/><circle data-name="Ellipse 8" cx="12.6" cy="12.6" r="12.6" transform="translate(372.88 184.6)" fill="#f7f2ed"/><path data-name="Path 250" d="M385.48 210.31a13.1 13.1 0 1113.1-13.1 13.1 13.1 0 01-13.1 13.1zm0-25.21a12.1 12.1 0 1012.1 12.1 12.1 12.1 0 00-12.1-12.1z" fill="#505b65"/><path data-name="Path 251" d="M385.48 206.81a9.6 9.6 0 119.6-9.6 9.6 9.6 0 01-9.6 9.6z" fill="#f7f2ed"/><path data-name="Path 252" d="M385.48 207.31a10.1 10.1 0 1110.1-10.1 10.1 10.1 0 01-10.1 10.1zm0-19.21a9.1 9.1 0 109.1 9.1 9.1 9.1 0 00-9.1-9.1z" fill="#505b65"/><circle data-name="Ellipse 9" cx="12.6" cy="12.6" r="12.6" transform="translate(403.36 184.6)" fill="#f7f2ed"/><path data-name="Path 253" d="M416 210.31a13.1 13.1 0 1113.1-13.1 13.1 13.1 0 01-13.1 13.1zm0-25.21a12.1 12.1 0 1012.1 12.1 12.1 12.1 0 00-12.1-12.1z" fill="#505b65"/><path data-name="Path 254" d="M416 206.81a9.6 9.6 0 119.6-9.6 9.6 9.6 0 01-9.6 9.6z" fill="#f7f2ed"/><path data-name="Path 255" d="M416 207.31a10.1 10.1 0 1110.1-10.1 10.1 10.1 0 01-10.1 10.1zm0-19.21a9.1 9.1 0 109.1 9.1 9.1 9.1 0 00-9.1-9.1z" fill="#505b65"/><rect data-name="Rectangle 14" width="65.13" height="35.4" rx="17.52" transform="translate(26.97 179.51)" fill="url(#c)"/><path data-name="Path 256" d="M74.58 215.4H44.5a18 18 0 01-18-18v-.4a18 18 0 0118-18h30.08a18 18 0 0118 18v.35a18 18 0 01-18 18.05zM44.5 180a17 17 0 00-17 17v.35a17 17 0 0017 17h30.08a17 17 0 0017-17V197a17 17 0 00-17-17z" fill="#505b65"/><rect data-name="Rectangle 15" width="35.87" height="16.05" rx="5" transform="translate(41.61 219.41)" fill="#f7f2ed"/><path data-name="Path 257" d="M72.47 236H46.6a5.51 5.51 0 01-5.5-5.5v-6a5.51 5.51 0 015.5-5.5h25.87a5.51 5.51 0 015.5 5.5v6a5.51 5.51 0 01-5.5 5.5zM46.6 220a4.5 4.5 0 00-4.5 4.5v6a4.5 4.5 0 004.5 4.5h25.87a4.5 4.5 0 004.5-4.5v-6a4.5 4.5 0 00-4.5-4.5z" fill="#505b65"/><rect data-name="Rectangle 16" width="29.87" height="10.05" rx="2" transform="translate(44.6 222.41)" fill="url(#d)"/><path data-name="Path 258" d="M72.47 233H46.6a2.5 2.5 0 01-2.5-2.5v-6a2.5 2.5 0 012.5-2.5h25.87a2.5 2.5 0 012.5 2.5v6a2.5 2.5 0 01-2.5 2.5zM46.6 223a1.5 1.5 0 00-1.5 1.5v6a1.5 1.5 0 001.5 1.5h25.87a1.5 1.5 0 001.5-1.5v-6a1.5 1.5 0 00-1.5-1.5z" fill="#505b65"/><circle data-name="Ellipse 10" cx="12.6" cy="12.6" r="12.6" transform="translate(31.7 184.6)" fill="#f7f2ed"/><path data-name="Path 259" d="M44.3 210.31a13.1 13.1 0 1113.1-13.1 13.1 13.1 0 01-13.1 13.1zm0-25.21a12.1 12.1 0 1012.1 12.1 12.1 12.1 0 00-12.1-12.1z" fill="#505b65"/><path data-name="Path 260" d="M44.3 206.81a9.6 9.6 0 119.6-9.6 9.6 9.6 0 01-9.6 9.6z" fill="#f7f2ed"/><path data-name="Path 261" d="M44.3 207.31a10.1 10.1 0 1110.1-10.1 10.1 10.1 0 01-10.1 10.1zm0-19.21a9.1 9.1 0 109.1 9.1 9.1 9.1 0 00-9.1-9.1z" fill="#505b65"/><circle data-name="Ellipse 11" cx="12.6" cy="12.6" r="12.6" transform="translate(62.18 184.6)" fill="#f7f2ed"/><path data-name="Path 262" d="M74.78 210.31a13.1 13.1 0 1113.1-13.1 13.1 13.1 0 01-13.1 13.1zm0-25.21a12.1 12.1 0 1012.1 12.1 12.1 12.1 0 00-12.1-12.1z" fill="#505b65"/><path data-name="Path 263" d="M74.78 206.81a9.6 9.6 0 119.6-9.6 9.6 9.6 0 01-9.6 9.6z" fill="#f7f2ed"/><path data-name="Path 264" d="M74.78 207.31a10.1 10.1 0 1110.1-10.1 10.1 10.1 0 01-10.1 10.1zm0-19.21a9.1 9.1 0 109.1 9.1 9.1 9.1 0 00-9.1-9.1z" fill="#505b65"/><rect data-name="Rectangle 17" width="180.28" height="33.27" rx="16.47" transform="translate(139.99 207.68)" fill="#f7f2ed"/><path data-name="Path 265" d="M303.8 241.46H156.46a17 17 0 01-17-17v-.33a17 17 0 0117-17H303.8a17 17 0 0117 17v.33a17 17 0 01-17 17zm-147.34-33.28a16 16 0 00-16 16v.33a16 16 0 0016 16H303.8a16 16 0 0016-16v-.33a16 16 0 00-16-16z" fill="#505b65"/><rect data-name="Rectangle 18" width="174.28" height="27.27" rx="13.47" transform="translate(142.99 210.68)" fill="#a6a9ab"/><path data-name="Path 266" d="M303.8 238.46H156.46a14 14 0 01-14-14v-.33a14 14 0 0114-14H303.8a14 14 0 0114 14v.33a14 14 0 01-14 14zm-147.34-27.28a13 13 0 00-13 13v.33a13 13 0 0013 13H303.8a13 13 0 0013-13v-.33a13 13 0 00-13-13z" fill="#505b65"/><path data-name="Rectangle 19" fill="#505b65" d="M36.16 268.54h49.08v7.99H36.16z"/><path data-name="Rectangle 20" fill="#505b65" d="M375.02 268.54h49.08v7.99h-49.08z"/><path data-name="Path 267" d="M114.07 177.28h-11.64a.5.5 0 010-1h11.64a.5.5 0 010 1z" fill="#f7f2ed"/><path data-name="Path 268" d="M122.17 177.28h-3.83a.5.5 0 010-1h3.83a.5.5 0 010 1z" fill="#f7f2ed"/><path data-name="Path 269" d="M357.82 177.28h-16.64a.5.5 0 010-1h16.64a.5.5 0 010 1z" fill="#f7f2ed"/></g><g transform="translate(715 1409)"><path data-name="Path 270" d="M191.41 173.51H90.5l6.82-71.2a11.58 11.58 0 0111.48-10h64.31a11.56 11.56 0 0111.47 10z" fill="#a6a9ab"/><rect data-name="Rectangle 21" width="68.45" height="33.5" rx="11.57" transform="translate(106.73 42.02)" fill="#a6a9ab"/><path data-name="Rectangle 22" fill="#a6a9ab" d="M118.33 75.51h4.48v16.75h-4.48z"/><path data-name="Path 271" d="M123.32 92.76h-5.48V75h5.48zm-4.48-1h3.48V76h-3.48z" fill="#505b65"/><path data-name="Rectangle 23" fill="#a6a9ab" d="M159.1 75.51h4.48v16.75h-4.48z"/><path data-name="Path 272" d="M164.08 92.76h-5.48V75h5.48zm-4.48-1h3.48V76h-3.48z" fill="#505b65"/><path data-name="Path 273" d="M104.62 147.44l-1.17 12.22h75.01l-1.17-12.22z" fill="#888b8c"/><path data-name="Path 274" d="M179.85 174.19l-1.17-12.22h-75.45l-1.17 12.22z" fill="#888b8c"/><path data-name="Path 275" d="M174.28 116.05l-.67-7a5.79 5.79 0 00-5.76-5.23h-53.79a5.79 5.79 0 00-5.76 5.23l-.67 7z" fill="#888b8c"/><path data-name="Path 276" d="M107.41 118.37l-1.17 12.22h69.43l-1.17-12.22z" fill="#888b8c"/><path data-name="Path 277" d="M106.02 132.9l-1.17 12.22h72.22l-1.17-12.22z" fill="#888b8c"/><path data-name="Path 278" d="M363.63 173.51H262.72l6.82-71.2a11.58 11.58 0 0111.48-10h64.31a11.56 11.56 0 0111.47 10z" fill="#a6a9ab"/><rect data-name="Rectangle 24" width="68.45" height="33.5" rx="11.57" transform="translate(278.95 42.02)" fill="#a6a9ab"/><path data-name="Rectangle 25" fill="#a6a9ab" d="M290.55 75.51h4.48v16.75h-4.48z"/><path data-name="Path 279" d="M295.53 92.76h-5.48V75h5.48zm-4.48-1h3.48V76h-3.48z" fill="#505b65"/><path data-name="Rectangle 26" fill="#a6a9ab" d="M331.32 75.51h4.48v16.75h-4.48z"/><path data-name="Path 280" d="M336.3 92.76h-5.48V75h5.48zm-4.48-1h3.48V76h-3.48z" fill="#505b65"/><path data-name="Path 281" d="M276.84 147.44l-1.17 12.22h75.01l-1.17-12.22z" fill="#888b8c"/><path data-name="Path 282" d="M352.07 174.19l-1.17-12.22h-75.45l-1.17 12.22z" fill="#888b8c"/><path data-name="Path 283" d="M346.5 116.05l-.67-7a5.79 5.79 0 00-5.76-5.23h-53.79a5.79 5.79 0 00-5.76 5.23l-.67 7z" fill="#888b8c"/><path data-name="Path 284" d="M279.63 118.37l-1.17 12.22h69.43l-1.17-12.22z" fill="#888b8c"/><path data-name="Path 285" d="M278.24 132.9l-1.18 12.22h72.23l-1.18-12.22z" fill="#888b8c"/></g><g transform="translate(715 1409)"><path data-name="Path 286" d="M170.19 81a30.77 30.77 0 10-58.47 0c7.56 23.27 7.56 25.74 0 49a30.77 30.77 0 1058.47 0c-7.56-23.24-7.56-25.7 0-49z" fill="#505b65"/><path data-name="Path 287" d="M141 170.91a31.27 31.27 0 01-29.71-41c7.54-23.21 7.54-25.49 0-48.7a31.27 31.27 0 1159.42 0c-7.54 23.21-7.54 25.49 0 48.7a31.27 31.27 0 01-29.71 41zm0-129.76a30.27 30.27 0 00-28.76 39.72c7.56 23.28 7.56 26 0 49.32a30.27 30.27 0 1057.52 0c-7.56-23.28-7.56-26 0-49.32A30.27 30.27 0 00141 41.15z" fill="#505b65"/><path data-name="Path 288" d="M171.73 71.45h-61.55V54.79a30.46 30.46 0 0130.46-30.46h.62a30.46 30.46 0 0130.46 30.46z" fill="#505b65"/><path data-name="Path 289" d="M172.23 71.95h-62.55V54.79a31 31 0 0131-31h.62a31 31 0 0131 31zm-61.54-1h60.54V54.79a30 30 0 00-30-30h-.62a30 30 0 00-30 30z" fill="#505b65"/><path data-name="Path 290" d="M107.9 172.18V147a32.78 32.78 0 0132.74-32.74h.62A32.78 32.78 0 01174 147v25.16z" fill="#d5d3d0"/><path data-name="Path 291" d="M174.51 172.68H107.4V147a33.28 33.28 0 0133.24-33.24h.62A33.28 33.28 0 01174.51 147zm-66.11-1h65.11V147a32.28 32.28 0 00-32.24-32.24h-.62A32.28 32.28 0 00108.4 147z" fill="#505b65"/><path data-name="Path 292" d="M170.08 71.75V55.66a29.2 29.2 0 00-29.2-29.2h-.59a29.2 29.2 0 00-29.2 29.2v16.15a5.66 5.66 0 00.74 11.27h.09a29.21 29.21 0 0010.88 16.47 18.55 18.55 0 017.26 14.88v6.68a10.43 10.43 0 0010.43 10.43h.21a10.43 10.43 0 0010.43-10.43v-6.65a18.59 18.59 0 017.27-14.91A29.21 29.21 0 00169.28 83a5.66 5.66 0 10.81-11.26z" fill="#f7f2ed"/><path data-name="Path 293" d="M140.69 132h-.21a10.94 10.94 0 01-10.93-10.93v-6.68a18.1 18.1 0 00-7.06-14.48 29.77 29.77 0 01-11-16.38 6.15 6.15 0 01-.93-12.18V55.66A29.73 29.73 0 01140.29 26h.59a29.73 29.73 0 0129.7 29.7v15.57a6.16 6.16 0 01-.5 12.3h-.43a29.77 29.77 0 01-11 16.38 18.14 18.14 0 00-7.07 14.51v6.65A10.94 10.94 0 01140.69 132zm-.4-105a28.73 28.73 0 00-28.7 28.7v16.54l-.44.06a5.16 5.16 0 00.67 10.28h.39l.18.38a28.76 28.76 0 0010.69 16.19 19.1 19.1 0 017.46 15.28v6.68a9.94 9.94 0 009.93 9.93h.21a9.94 9.94 0 009.93-9.93v-6.65a19.15 19.15 0 017.47-15.31 28.76 28.76 0 0010.7-16.24l.11-.44.45.06a5.08 5.08 0 00.74.06 5.16 5.16 0 000-10.32h-.5V55.66A28.73 28.73 0 00140.88 27z" fill="#505b65"/><path data-name="Path 294" d="M111.73 74.12a3.37 3.37 0 000 6.72z" fill="#a6a9ab"/><path data-name="Path 295" d="M170.17 80.84a3.37 3.37 0 000-6.72z" fill="#a6a9ab"/><circle data-name="Ellipse 12" cx="1.73" cy="1.73" r="1.73" transform="translate(129.99 66.84)" fill="#505b65"/><circle data-name="Ellipse 13" cx="1.73" cy="1.73" r="1.73" transform="translate(148.46 66.84)" fill="#505b65"/><circle data-name="Ellipse 14" cx="3.38" cy="3.38" r="3.38" transform="translate(121.43 74.37)" fill="#a6a9ab"/><circle data-name="Ellipse 15" cx="3.38" cy="3.38" r="3.38" transform="translate(153.72 74.37)" fill="#a6a9ab"/><path data-name="Path 296" d="M140.88 25.84h-.59A29.2 29.2 0 00111.54 50v20.48a.62.62 0 001 .51c3.56-2.6 2.25-5.58 6.69-8.12 4.8-2.74 6.73.52 11.52-2.23s2.87-6 7.66-8.75 6.72.52 11.52-2.23 2.87-6 7.66-8.75c3.53-2 5.52-.79 8.24-1.11a29.18 29.18 0 00-24.95-13.96z" fill="#505b65"/><path data-name="Path 297" d="M112.16 71.61a1.13 1.13 0 01-1.16-1.13V50a29.64 29.64 0 0129.26-24.65h.59a29.52 29.52 0 0125.35 14.22l.41.67-.78.09a9.149 9.149 0 01-1.05.06 10.834 10.834 0 01-1.51-.07 10.06 10.06 0 00-1.44-.07 7.6 7.6 0 00-4 1.13 8 8 0 00-3.63 4.15 8.92 8.92 0 01-4 4.59 8.59 8.59 0 01-4.51 1.25 10.066 10.066 0 01-1.54-.08 9.358 9.358 0 00-1.46-.07 7.54 7.54 0 00-4 1.12 8 8 0 00-3.69 4.15 8.93 8.93 0 01-4 4.59 8.59 8.59 0 01-4.51 1.26 10.066 10.066 0 01-1.54-.08 9.358 9.358 0 00-1.46-.07 7.55 7.55 0 00-4 1.12 8 8 0 00-3.63 4.16 9.1 9.1 0 01-3 3.93 1.09 1.09 0 01-.7.21zm28.13-45.27A28.63 28.63 0 00112 50.08v20.4a.12.12 0 00.18.1 8.16 8.16 0 002.7-3.56 8.94 8.94 0 014-4.59 8.59 8.59 0 014.51-1.26 10.065 10.065 0 011.54.08 9.358 9.358 0 001.46.07 7.55 7.55 0 004-1.12 8 8 0 003.63-4.15 8.92 8.92 0 014-4.59 8.58 8.58 0 014.51-1.26 10.065 10.065 0 011.54.08 9.358 9.358 0 001.46.07 7.54 7.54 0 004-1.12 8 8 0 003.63-4.15 8.92 8.92 0 014-4.59 8.64 8.64 0 014.54-1.26 10.834 10.834 0 011.51.07 10.06 10.06 0 001.44.07h.12a28.52 28.52 0 00-24-13z" fill="#505b65"/><path data-name="Path 298" d="M159.83 37.25s-2.35 16.17 11.1 18.5c.01 0 1.38-17.04-11.1-18.5z" fill="#505b65"/><path data-name="Path 299" d="M171.39 56.33l-.54-.09c-13.77-2.38-11.54-18.9-11.51-19.07l.07-.48.48.06c12.8 1.5 11.56 18.86 11.55 19zm-11.12-18.52c-.27 2.68-.9 15 10.2 17.34.08-2.86-.09-15.75-10.2-17.34z" fill="#505b65"/><path data-name="Path 300" d="M141 93.19a7.11 7.11 0 01-6.54-4.34.5.5 0 01.92-.39 6.106 6.106 0 0011.25 0 .5.5 0 01.92.39 7.1 7.1 0 01-6.55 4.34z" fill="#505b65"/><path data-name="Path 301" d="M140.17 82.34h-.36a.5.5 0 010-1h.36a4.49 4.49 0 004.49-4.49V66.39a5.49 5.49 0 015.48-5.49.52.52 0 01.52.5.48.48 0 01-.47.5h-.05a4.49 4.49 0 00-4.48 4.49v10.47a5.49 5.49 0 01-5.49 5.48z" fill="#505b65"/><path data-name="Path 302" d="M130.05 116.05l10.64 15.48s-9.87 3.25-13.75-2.75c-3.28-5.09 3.11-12.73 3.11-12.73z" fill="#f7f2ed"/><path data-name="Path 303" d="M134.92 132.91c-3.86 0-6.76-1.33-8.39-3.86-3.45-5.34 2.87-13 3.14-13.32l.42-.5 11.39 16.57-.63.21a21 21 0 01-5.93.9zm-4.89-16c-1.32 1.77-5.23 7.62-2.66 11.61 1.46 2.26 4 3.4 7.55 3.4a20.409 20.409 0 005-.67z" fill="#505b65"/><path data-name="Path 304" d="M151.34 116.05l-10.64 15.48s9.87 3.25 13.75-2.75c3.28-5.09-3.11-12.73-3.11-12.73z" fill="#f7f2ed"/><path data-name="Path 305" d="M146.47 132.91a21 21 0 01-5.94-.9l-.63-.21 11.39-16.57.42.5c.27.32 6.59 8 3.14 13.32-1.62 2.53-4.52 3.86-8.38 3.86zm-5-1.67a20.48 20.48 0 005 .67c3.55 0 6.09-1.14 7.55-3.4 2.57-4-1.34-9.84-2.66-11.61z" fill="#505b65"/><path data-name="Rectangle 27" fill="#505b65" d="M107.9 151.2h66.11v2.35H107.9z"/><path data-name="Path 306" d="M143.7 144.78a3.48 3.48 0 01-3.5-3.47v-9.78a.5.5 0 111 0v9.78a2.48 2.48 0 002.47 2.47.51.51 0 01.52.5.49.49 0 01-.49.5z" fill="#505b65"/><path data-name="Path 307" d="M174 156.7h-66.1a.5.5 0 010-1H174a.5.5 0 010 1z" fill="#505b65"/><path data-name="Path 308" d="M163 149.41l11.78 16.53a7.77 7.77 0 1012.65-9l-16-22.46z" fill="#d5d3d0"/><path data-name="Path 309" d="M181.07 169.7a8.2 8.2 0 01-6.44-3.1l-.28-.38-11.78-16.52.81-.58 11.78 16.52a7.27 7.27 0 1011.84-8.43l-.29-.41L171 134.74l.81-.58 16.3 22.84a8.26 8.26 0 01-6.36 12.63z" fill="#505b65"/><path data-name="Path 310" d="M123.52 144.47c-2.64 11.73-2.82 12.55-5.44 24.28-.1.42-.2.86-.3 1.31a7.65 7.65 0 01-1.77 3.45h-11.63a7.57 7.57 0 01-1.93-4.76 7 7 0 01.17-2.09c2.88-12.85 3.33-14.53 6-26.27z" fill="#d5d3d0"/><path data-name="Path 311" d="M116.22 174h-12.06l-.15-.17a8.11 8.11 0 01-2.06-5.07 7.34 7.34 0 01.07-1.61l.13-.61c1.47-6.54 2.3-10.19 3.12-13.74s1.55-6.76 2.84-12.53l1 .22c-1.29 5.77-2.06 9.11-2.84 12.53s-1.6 7-3 13.13l-.13.61a6.56 6.56 0 00-.16 1.94 7.13 7.13 0 001.66 4.3h11.16a7.21 7.21 0 001.51-3.06l.1-.39.21-.93.9-4c1.8-8.08 2.24-10 4.54-20.24l1 .22c-2.3 10.22-2.73 12.16-4.54 20.24l-.9 4c-.1.42-.2.86-.3 1.31l-.11.39a8.18 8.18 0 01-1.79 3.29z" fill="#505b65"/></g><g transform="translate(715 1409)"><path data-name="Path 312" d="M75.04 82.06l91.46 91.45h14.14L77.66 70.53z" fill="#505b65"/><path data-name="Path 313" d="M141.43 152.78a7.79 7.79 0 01-3.43 6.82l-13.8 9.14-7.2 4.77h-12.15a7.69 7.69 0 01-2-4.76v-.05a7.75 7.75 0 013.48-6.82l11.49-7.62 11.5-7.61a7.77 7.77 0 0112.06 6.13z" fill="#d5d3d0"/><path data-name="Path 314" d="M117.11 174h-12.48l-.15-.17a8.253 8.253 0 011.62-12.38l6.66-4.41 4.83-3.2 2-1.3 9.54-6.32a8.37 8.37 0 014.19-1.37h.38a8.27 8.27 0 014.79 15l-.22.16-5.27 3.47-8.58 5.69zm-12-1h11.73l7.06-4.68 8.59-5.69 5.21-3.46a7.27 7.27 0 00-4.34-13.33 7.37 7.37 0 00-3.69 1.21l-9.54 6.31-2 1.29-4.83 3.2-6.66 4.41a7.26 7.26 0 00-1.56 10.74z" fill="#505b65"/><path data-name="Path 315" d="M157.85 132.35v-.05a2.76 2.76 0 00-3.6-1.51l-11.59 4.76-7 2.86.86-2.11a2.76 2.76 0 00-1.52-3.6h-.05a2.76 2.76 0 00-3.6 1.52l-4.13 11.1a11.119 11.119 0 00-.41 1.1 1.35 1.35 0 00-.13.5 11 11 0 00.47 6.95l.08.21a11 11 0 0014.41 6l6-2.47 3.94-1.62a2.76 2.76 0 001.51-3.6v-.05a2.76 2.76 0 00-3.6-1.51l-1.77.72 3.63-1.49a2.76 2.76 0 001.51-3.6v-.05a2.76 2.76 0 00-3.6-1.51l-3.26 1.32 5.08-2.09a2.76 2.76 0 001.51-3.6v-.05A2.76 2.76 0 00149 139l-4.66 1.91 12-4.93a2.76 2.76 0 001.51-3.63z" fill="#f7f2ed"/><path data-name="Path 316" d="M137.47 161.41a11.51 11.51 0 01-10.68-7.16l-.08-.21a11.44 11.44 0 01-.5-7.2 1.93 1.93 0 01.16-.62 11.118 11.118 0 01.41-1.11l4.11-11.11a3.291 3.291 0 116.1 2.47l-.41 1 17.42-7.14a3.292 3.292 0 112.5 6.09l-5.16 2.12a3.31 3.31 0 01.23 5.92 3.29 3.29 0 01.25 5.93 3.3 3.3 0 010 6.06l-10 4.09a11.49 11.49 0 01-4.35.87zM133.92 133a2.26 2.26 0 00-2.1 1.41l-4.13 11.08a10.913 10.913 0 00-.4 1.07 1.27 1.27 0 00-.11.35v.14a10.45 10.45 0 00.45 6.63l.08.21a10.54 10.54 0 0013.76 5.75l10-4.09a2.316 2.316 0 00-1.77-4.28l-1.77.72-.38-.93 3.63-1.49a2.26 2.26 0 001.23-2.95 2.29 2.29 0 00-3-1.29l-3.21 1.32-.38-.93 5.08-2.09a2.26 2.26 0 001.23-3 2.3 2.3 0 00-3-1.28l-4.66 1.91-.38-.93 12-4.92a2.26 2.26 0 001.23-3 2.3 2.3 0 00-3-1.28l-19.65 8.07 1.31-3.22a2.26 2.26 0 00-1.24-2.95 2.33 2.33 0 00-.82-.03z" fill="#505b65"/><path data-name="Path 317" d="M195.17 129.77a7.76 7.76 0 00-13.17 2.87L173.76 159a7.77 7.77 0 1014.83 4.61l8.19-26.34a7.76 7.76 0 00-1.61-7.5z" fill="#d5d3d0"/><path data-name="Path 318" d="M181.18 169.56a8.29 8.29 0 01-6.18-2.76 8.2 8.2 0 01-1.86-7.46l.15-.5 8.32-26.84a8.27 8.27 0 0115.77 4.85l-.15.5-8.33 26.79a8.25 8.25 0 01-7.74 5.37zm-6.8-10.9l-.14.47a7.269 7.269 0 1013.882 4.32l.138-.46 8-25.88a7.269 7.269 0 10-13.882-4.32l-.138.45z" fill="#505b65"/><path data-name="Path 319" d="M210.39 125.45a2.76 2.76 0 00-3.85-.65l1.64-1.17a2.76 2.76 0 00.65-3.85 2.76 2.76 0 00-3.85-.65l1.64-1.17a2.76 2.76 0 00.65-3.85 2.76 2.76 0 00-3.85-.65l-5.21 3.7-3.23-4.55-6.98 4.74a11 11 0 00-2.61 15.4l.13.18a11 11 0 0015.4 2.61l.49-.35 6.37-4.53 1.92-1.36a2.76 2.76 0 00.69-3.85z" fill="#f7f2ed"/><path data-name="Path 320" d="M194.56 138.09a11.58 11.58 0 01-9.42-4.86L185 133a11.55 11.55 0 012.73-16.1l7.27-5.17 3.23 4.55 4.8-3.41a3.292 3.292 0 014.06 5.17 3.3 3.3 0 011.59 5.71 3.3 3.3 0 011.34 5.91l-8.78 6.34a11.47 11.47 0 01-6.68 2.09zm.21-24.91l-6.46 4.59a10.55 10.55 0 00-2.49 14.7l.13.18a10.57 10.57 0 008.61 4.44 10.47 10.47 0 006.1-1.95l8.79-6.24a2.26 2.26 0 00.53-3.15 2.31 2.31 0 00-3.18-.58l-.58-.82 1.64-1.17a2.26 2.26 0 00.53-3.15 2.31 2.31 0 00-3.18-.58l-.58-.82 1.64-1.17a2.26 2.26 0 00.53-3.15 2.31 2.31 0 00-3.19-.58l-5.61 4z" fill="#505b65"/><path data-name="Path 321" d="M210.29 111.47h-14.68V85.9a2.23 2.23 0 012.23-2.23h10.22a2.23 2.23 0 012.23 2.23z" fill="#d5d3d0"/><path data-name="Path 322" d="M210.79 112h-15.68V85.9a2.73 2.73 0 012.73-2.73h10.22a2.73 2.73 0 012.73 2.73zm-14.68-1h13.68V85.9a1.73 1.73 0 00-1.73-1.73h-10.22a1.73 1.73 0 00-1.73 1.73z" fill="#505b65"/><path data-name="Path 323" d="M209.55 111.47h-14.68V85.9a2.23 2.23 0 012.23-2.23h10.22a2.23 2.23 0 012.23 2.23z" fill="#d5d3d0"/><path data-name="Path 324" d="M210 112h-15.63V85.9a2.73 2.73 0 012.73-2.73h10.22A2.73 2.73 0 01210 85.9zm-14.68-1H209V85.9a1.73 1.73 0 00-1.73-1.73H197.1a1.73 1.73 0 00-1.73 1.73z" fill="#505b65"/><path data-name="Path 325" d="M196.35 110V85.9a.74.74 0 01.74-.74h10.22a.74.74 0 01.74.74V110z" fill="#f7f2ed"/><path data-name="Path 326" d="M208.31 110.23H196.1V85.9a1 1 0 011-1h10.22a1 1 0 011 1zm-11.7-.5h11.2V85.9a.49.49 0 00-.49-.49H197.1a.49.49 0 00-.49.49z" fill="#505b65"/><circle data-name="Ellipse 16" cx="1.93" cy="1.93" r="1.93" transform="translate(200.28 95.36)" fill="#f7f2ed"/><path data-name="Path 327" d="M202.21 99.46a2.18 2.18 0 112.18-2.18 2.18 2.18 0 01-2.18 2.18zm0-3.85a1.68 1.68 0 101.68 1.68 1.68 1.68 0 00-1.68-1.68z" fill="#505b65"/><path data-name="Path 328" d="M208.06 139.27h-10.22a2.23 2.23 0 01-2.23-2.23v-25.57h14.68V137a2.23 2.23 0 01-2.23 2.27z" fill="#d5d3d0"/><path data-name="Path 329" d="M208.06 139.77h-10.22a2.73 2.73 0 01-2.73-2.73V111h15.68v26a2.73 2.73 0 01-2.73 2.77zM196.11 112v25a1.73 1.73 0 001.73 1.73h10.22a1.73 1.73 0 001.73-1.73v-25z" fill="#505b65"/><path data-name="Path 330" d="M207.31 139.27H197.1a2.23 2.23 0 01-2.23-2.23v-25.57h14.68V137a2.23 2.23 0 01-2.24 2.27z" fill="#d5d3d0"/><path data-name="Path 331" d="M207.31 139.77H197.1a2.73 2.73 0 01-2.73-2.73V111H210v26a2.73 2.73 0 01-2.69 2.77zM195.37 112v25a1.73 1.73 0 001.73 1.73h10.22A1.73 1.73 0 00209 137v-25z" fill="#505b65"/><path data-name="Path 332" d="M207.31 138H197.1a1 1 0 01-1-1v-24.3h12.2V137a1 1 0 01-.99 1zm-10.71-24.8V137a.49.49 0 00.49.49h10.22a.49.49 0 00.49-.49v-23.8z" fill="#505b65"/><path data-name="Path 333" d="M202.21 121.34a3.35 3.35 0 113.35-3.35 3.35 3.35 0 01-3.35 3.35zm0-4.46a1.12 1.12 0 101.12 1.12 1.12 1.12 0 00-1.12-1.12z" fill="#f7f2ed"/><path data-name="Path 334" d="M202.21 121.59a3.6 3.6 0 113.6-3.6 3.6 3.6 0 01-3.6 3.6zm0-6.69a3.1 3.1 0 103.1 3.1 3.1 3.1 0 00-3.1-3.1zm0 4.46a1.37 1.37 0 111.37-1.37 1.37 1.37 0 01-1.37 1.37zm0-2.23a.87.87 0 10.87.87.87.87 0 00-.87-.87z" fill="#505b65"/><path data-name="Path 335" d="M199.45 128.19h-1a.95.95 0 010-1.89h1a.95.95 0 010 1.89zm-1-1.39a.45.45 0 000 .89h1a.45.45 0 000-.89z" fill="#505b65"/><path data-name="Path 336" d="M202.7 128.19h-1a.95.95 0 010-1.89h1a.95.95 0 010 1.89zm-1-1.39a.45.45 0 000 .89h1a.45.45 0 000-.89z" fill="#505b65"/><path data-name="Path 337" d="M205.94 128.19h-1a.95.95 0 010-1.89h1a.95.95 0 010 1.89zm-1-1.39a.45.45 0 000 .89h1a.45.45 0 000-.89z" fill="#505b65"/><path data-name="Path 338" d="M199.45 130.06h-1a.95.95 0 010-1.89h1a.95.95 0 010 1.89zm-1-1.39a.45.45 0 000 .89h1a.45.45 0 000-.89z" fill="#505b65"/><path data-name="Path 339" d="M202.7 130.06h-1a.95.95 0 010-1.89h1a.95.95 0 010 1.89zm-1-1.39a.45.45 0 000 .89h1a.45.45 0 000-.89z" fill="#505b65"/><path data-name="Path 340" d="M205.94 130.06h-1a.95.95 0 010-1.89h1a.95.95 0 010 1.89zm-1-1.39a.45.45 0 000 .89h1a.45.45 0 000-.89z" fill="#505b65"/><path data-name="Path 341" d="M199.45 131.94h-1a.95.95 0 010-1.89h1a.95.95 0 010 1.89zm-1-1.39a.45.45 0 000 .89h1a.45.45 0 000-.89z" fill="#505b65"/><path data-name="Path 342" d="M202.7 131.94h-1a.95.95 0 010-1.89h1a.95.95 0 010 1.89zm-1-1.39a.45.45 0 000 .89h1a.45.45 0 000-.89z" fill="#505b65"/><path data-name="Path 343" d="M205.94 131.94h-1a.95.95 0 010-1.89h1a.95.95 0 010 1.89zm-1-1.39a.45.45 0 000 .89h1a.45.45 0 000-.89z" fill="#505b65"/><path data-name="Path 344" d="M199.45 133.81h-1a.95.95 0 010-1.9h1a.95.95 0 010 1.9zm-1-1.4a.45.45 0 100 .9h1a.45.45 0 100-.9z" fill="#505b65"/><path data-name="Path 345" d="M202.7 133.81h-1a.95.95 0 010-1.9h1a.95.95 0 010 1.9zm-1-1.4a.45.45 0 100 .9h1a.45.45 0 100-.9z" fill="#505b65"/><path data-name="Path 346" d="M205.94 133.81h-1a.95.95 0 010-1.9h1a.95.95 0 110 1.9zm-1-1.4a.45.45 0 100 .9h1a.45.45 0 100-.9z" fill="#505b65"/><rect data-name="Rectangle 28" width=".51" height="2.57" rx=".25" transform="translate(203.15 134.62)" fill="#505b65"/><rect data-name="Rectangle 29" width=".51" height="2.57" rx=".25" transform="translate(202.35 134.62)" fill="#505b65"/><rect data-name="Rectangle 30" width=".51" height="2.57" rx=".25" transform="translate(201.55 134.62)" fill="#505b65"/><rect data-name="Rectangle 31" width=".51" height="2.57" rx=".25" transform="translate(200.75 134.62)" fill="#505b65"/><path data-name="Path 347" d="M187.26 117.9l8.34-5.9a2.76 2.76 0 013.85.65 2.76 2.76 0 01-.65 3.85l-6.49 4.61z" fill="#f7f2ed"/><path data-name="Path 348" d="M192.34 121.63a.5.5 0 01-.29-.91l6.49-4.61a2.29 2.29 0 00-2.65-3.73l-8.34 5.93a.5.5 0 11-.58-.82l8.34-5.93a3.29 3.29 0 013.81 5.36l-6.49 4.61a.5.5 0 01-.29.1z" fill="#505b65"/></g><g transform="translate(715 1409)"><rect data-name="Rectangle 32" width="61.89" height="15.5" rx="7.67" transform="translate(282.54 106.27)" fill="#d5d3d0"/><path data-name="Path 349" d="M336.76 122.26h-46.55a8.18 8.18 0 01-8.17-8.17v-.15a8.18 8.18 0 018.17-8.17h46.55a8.18 8.18 0 018.17 8.17v.15a8.18 8.18 0 01-8.17 8.17zm-46.55-15.5a7.18 7.18 0 00-7.17 7.17v.15a7.18 7.18 0 007.17 7.17h46.55a7.18 7.18 0 007.17-7.17v-.15a7.18 7.18 0 00-7.17-7.17z" fill="#505b65"/><path data-name="Path 350" d="M340.36 113.49a28.84 28.84 0 0115.1 25.36v31.54h-83.95v-31.54a28.84 28.84 0 0115.54-25.6z" fill="#d5d3d0"/><path data-name="Path 351" d="M356 170.89h-85v-32a29.281 29.281 0 0115.812-26l.458.891A28.28 28.28 0 00272 138.85v31h83v-31a28.35 28.35 0 00-14.831-24.921l.481-.879a29.35 29.35 0 0115.35 25.8z" fill="#505b65"/><path data-name="Path 352" d="M316 159.47h-5v-32h5zm-4-1h3v-30h-3z" fill="#505b65"/><path data-name="Path 353" d="M343.44 69V51.69a29.61 29.61 0 00-29.61-29.61h-.6a29.61 29.61 0 00-29.61 29.61V69a6.92 6.92 0 100 13.84h.15a29.5 29.5 0 008.82 18.24 17.07 17.07 0 015.21 13.2v.99a15.76 15.76 0 0031.51 0v-.99a17.07 17.07 0 015.21-13.2 29.5 29.5 0 008.82-18.24h.15a6.92 6.92 0 100-13.84z" fill="#f7f2ed"/><path data-name="Path 354" d="M313.53 131.53a16.28 16.28 0 01-16.26-16.26v-1.02a16.58 16.58 0 00-5.06-12.81 30.1 30.1 0 01-8.92-18.1 7.42 7.42 0 01-.2-14.82V51.69a30.14 30.14 0 0130.11-30.11h.6a30.14 30.14 0 0130.11 30.11v16.82a7.42 7.42 0 01-.2 14.82 30.1 30.1 0 01-8.92 18.1 16.58 16.58 0 00-5.06 12.81v1.02a16.28 16.28 0 01-16.2 16.27zm-15.21-17.65v1.39a15.26 15.26 0 0030.51 0v-1.39a17.59 17.59 0 015.38-13.16 29.09 29.09 0 008.67-17.93v-.46h.46l.14.51v-.5a6.42 6.42 0 100-12.84h-.5V51.69a29.14 29.14 0 00-29.11-29.11h-.6a29.14 29.14 0 00-29.11 29.11V69.5h-.5a6.42 6.42 0 100 12.84h.46l.19.45a29.09 29.09 0 008.67 17.93 17.59 17.59 0 015.35 13.16z" fill="#505b65"/><path data-name="Path 355" d="M343.47 72.05v7.74a3.87 3.87 0 000-7.74z" fill="#a6a9ab"/><path data-name="Path 356" d="M283.5 72.05v7.74a3.87 3.87 0 010-7.74z" fill="#a6a9ab"/><circle data-name="Ellipse 17" cx="1.76" cy="1.76" r="1.76" transform="translate(300.29 65.29)" fill="#505b65"/><circle data-name="Ellipse 18" cx="1.76" cy="1.76" r="1.76" transform="translate(323.26 65.29)" fill="#505b65"/><path data-name="Path 357" d="M314.19 85.16A5.14 5.14 0 01309 80v-9.52a.5.5 0 011 0V80a4.16 4.16 0 008.32 0v-.66a.5.5 0 011 0V80a5.12 5.12 0 01-5.13 5.16z" fill="#505b65"/><path data-name="Path 358" d="M313.78 21.93h-.6a29.69 29.69 0 00-29.68 29.68v39.28a29.69 29.69 0 0029.69 29.69h.6a29.69 29.69 0 0029.69-29.69V51.61a29.69 29.69 0 00-29.7-29.68zm22.91 69.7v.7a4.44 4.44 0 01-4.44 4.44h-.09a4.44 4.44 0 01-4.44-4.44v-.12a7.28 7.28 0 00-7.28-7.28H306.3a7.28 7.28 0 00-7.3 7.28v.12a4.44 4.44 0 01-4.44 4.44h-.09a4.44 4.44 0 01-4.47-4.44V54.84h46.7z" fill="#505b65"/><path data-name="Path 359" d="M314.71 106.79a4.47 4.47 0 01-4.25-6l.22-.59a.5.5 0 01.94.35l-.22.59a3.47 3.47 0 003.25 4.69.53.53 0 01.53.5.48.48 0 01-.47.46z" fill="#f7f2ed"/><path data-name="Path 360" d="M331 67.11a.5.5 0 01-.49-.43 6.25 6.25 0 00-11.14-2.91.5.5 0 01-.79-.61 7.25 7.25 0 0112.92 3.38.5.5 0 01-.42.57z" fill="#505b65"/><path data-name="Path 361" d="M296 67.11a.5.5 0 01-.42-.57 7.25 7.25 0 0112.92-3.38.5.5 0 01-.79.61 6.25 6.25 0 00-11.13 2.91.5.5 0 01-.58.43z" fill="#505b65"/><path data-name="Path 362" d="M307.62 88.64v.07a5.915 5.915 0 0011.83 0v-.07z" fill="#f7f2ed"/><path data-name="Path 363" d="M313.53 95.12a6.42 6.42 0 01-6.41-6.41v-.5l.5-.07h12.32v.5a6.43 6.43 0 01-6.41 6.48zm-5.39-6a5.41 5.41 0 0010.79 0z" fill="#505b65"/><path data-name="Path 364" d="M290 54.84s2.41 4.86 15 4.67V50z" fill="#505b65"/><path data-name="Path 365" d="M305 54.84s2.41 4.86 15 4.67V50z" fill="#505b65"/><path data-name="Path 366" d="M319.93 54.84s2.41 4.86 15 4.67V50z" fill="#505b65"/><circle data-name="Ellipse 19" cx="2.69" cy="2.69" r="2.69" transform="translate(331.48 117.22)" fill="#f7f2ed"/><path data-name="Path 367" d="M334.17 123.09a3.19 3.19 0 113.19-3.19 3.19 3.19 0 01-3.19 3.19zm0-5.38a2.192 2.192 0 110 .01z" fill="#505b65"/><circle data-name="Ellipse 20" cx="1.31" cy="1.31" r="1.31" transform="translate(332.86 118.6)" fill="#f7f2ed"/><path data-name="Path 368" d="M334.17 121.72a1.81 1.81 0 111.81-1.81 1.81 1.81 0 01-1.81 1.81zm0-2.63a.81.81 0 10.81.81.81.81 0 00-.81-.81z" fill="#505b65"/><path data-name="Path 369" d="M334.17 140.95a.5.5 0 01-.5-.5v-20.54a.5.5 0 111 0v20.54a.5.5 0 01-.5.5z" fill="#505b65"/><path data-name="Path 370" d="M334.17 137.61a1.5 1.5 0 01-1.5-1.5v-16.2a1.5 1.5 0 113 0v16.21a1.5 1.5 0 01-1.5 1.49z" fill="#505b65"/><circle data-name="Ellipse 21" cx="2.69" cy="2.69" r="2.69" transform="translate(290.2 117.22)" fill="#f7f2ed"/><path data-name="Path 371" d="M292.89 123.09a3.19 3.19 0 113.19-3.19 3.19 3.19 0 01-3.19 3.19zm0-5.38a2.185 2.185 0 110 .01z" fill="#505b65"/><circle data-name="Ellipse 22" cx="1.31" cy="1.31" r="1.31" transform="translate(291.58 118.6)" fill="#f7f2ed"/><path data-name="Path 372" d="M292.89 121.72a1.81 1.81 0 111.81-1.81 1.81 1.81 0 01-1.81 1.81zm0-2.63a.81.81 0 10.81.81.81.81 0 00-.81-.81z" fill="#505b65"/><path data-name="Path 373" d="M292.89 140.95a.5.5 0 01-.5-.5v-20.54a.5.5 0 111 0v20.54a.5.5 0 01-.5.5z" fill="#505b65"/><path data-name="Path 374" d="M292.89 137.61a1.5 1.5 0 01-1.5-1.5v-16.2a1.5 1.5 0 113 0v16.21a1.5 1.5 0 01-1.5 1.49z" fill="#505b65"/></g><path data-name="Path 375" d="M1001 1582.51h14.15l86.25-86.25-2.62-11.53z" fill="#505b65"/><g transform="translate(715 1409)"><path data-name="Path 376" d="M288 169v-.53a26.71 26.71 0 1153.42 0v.53h6.25v-.53a33 33 0 10-65.92 0v.53z" fill="#505b65"/><path data-name="Path 377" d="M348.12 169.53h-7.25v-1.03a26.21 26.21 0 10-52.42 0v1.02h-7.25v-1.02a33.46 33.46 0 1166.92 0v.32zm-6.23-1h5.25a32.46 32.46 0 10-64.92 0h5.25a27.21 27.21 0 1154.42 0z" fill="#505b65"/><path data-name="Path 378" d="M312.33 138.14a.5.5 0 010-1c.79-.06 1.6-.09 2.39-.09a.5.5 0 010 1 19.826 19.826 0 00-2.31.09z" fill="#f7f2ed"/><path data-name="Path 379" d="M303.82 140a.508.508 0 11-.18-1 31.238 31.238 0 016.48-1.67.51.51 0 01.57.42.5.5 0 01-.42.57A30.248 30.248 0 00304 140a.48.48 0 01-.18 0z" fill="#f7f2ed"/><path data-name="Path 380" d="M329.68 159.91l-.17-.07a8.85 8.85 0 01-4.81-11.56l2.57-6.24 16.53 6.82-2.57 6.24a8.85 8.85 0 01-11.55 4.81z" fill="#f7f2ed"/><path data-name="Path 381" d="M333.05 161.08a9.288 9.288 0 01-3.558-.709l-.172-.071a9.36 9.36 0 01-5.08-12.21l2.76-6.7 17.45 7.2-2.77 6.7a9.32 9.32 0 01-8.63 5.79zm-5.5-18.38l-2.38 5.78a8.36 8.36 0 004.54 10.91l.17.07a8.35 8.35 0 0010.9-4.54l2.38-5.78z" fill="#505b65"/><rect data-name="Rectangle 33" width="15.25" height="4.47" rx="2.21" transform="rotate(-67.63 272.198 -169.486)" fill="#f7f2ed"/><path data-name="Path 382" d="M328.27 148.27a2.69 2.69 0 01-1-.21 2.72 2.72 0 01-1.51-1.48 2.69 2.69 0 010-2.08l4.13-10a2.74 2.74 0 015.06 2.09l-4.13 10a2.71 2.71 0 01-2.55 1.68zm4.09-14.45a1.71 1.71 0 00-1.58 1.06l-4.13 10a1.71 1.71 0 00.93 2.24 1.66 1.66 0 002.28-.91l4.13-10a1.72 1.72 0 00-.93-2.24 1.76 1.76 0 00-.7-.15z" fill="#505b65"/><rect data-name="Rectangle 34" width="15.25" height="4.47" rx="2.21" transform="rotate(-67.63 276.95 -169.596)" fill="#f7f2ed"/><path data-name="Path 383" d="M331.32 152.6a2.69 2.69 0 01-1-.21 2.73 2.73 0 01-1.51-3.56l4.13-10a2.737 2.737 0 015.06 2.09l-4.13 10a2.7 2.7 0 01-2.55 1.68zm4.09-14.45a1.71 1.71 0 00-1.58 1.06l-4.13 10a1.72 1.72 0 00.93 2.24 1.77 1.77 0 00.69.15 1.71 1.71 0 001.58-1.06l4.13-10a1.71 1.71 0 00-.93-2.24 1.79 1.79 0 00-.69-.15z" fill="#505b65"/><rect data-name="Rectangle 35" width="15.25" height="4.47" rx="2.21" transform="rotate(-67.63 281.101 -170.621)" fill="#f7f2ed"/><path data-name="Path 384" d="M334.84 155.8a2.69 2.69 0 01-1-.21 2.73 2.73 0 01-1.51-3.56l4.13-10a2.737 2.737 0 015.06 2.09l-4.13 10a2.7 2.7 0 01-2.55 1.68zm4.09-14.45a1.71 1.71 0 00-1.58 1.06l-4.13 10a1.72 1.72 0 00.93 2.24 1.77 1.77 0 00.69.15 1.71 1.71 0 001.58-1.06l4.13-10a1.71 1.71 0 00-.93-2.24 1.79 1.79 0 00-.69-.15z" fill="#505b65"/><path data-name="Path 385" d="M338.53 155.86a2.21 2.21 0 01-1.2-2.89l3.11-7.54a2.21 2.21 0 012.89-1.2 2.21 2.21 0 011.2 2.89l-3.11 7.54a2.21 2.21 0 01-2.89 1.2z" fill="#f7f2ed"/><path data-name="Path 386" d="M339.37 156.53a2.69 2.69 0 01-1-.21 2.72 2.72 0 01-1.51-1.48 2.69 2.69 0 010-2.08l3.11-7.54a2.737 2.737 0 115.06 2.09l-3.11 7.54a2.7 2.7 0 01-2.55 1.68zm3.07-12a1.71 1.71 0 00-1.58 1.06l-3.11 7.54a1.71 1.71 0 00.93 2.24 1.66 1.66 0 002.28-.91l3.11-7.54a1.71 1.71 0 00-.93-2.24 1.79 1.79 0 00-.7-.13z" fill="#505b65"/><path data-name="Path 387" d="M321.34 146.61a2.21 2.21 0 013-.76L328 148a2.21 2.21 0 01.77 3 2.21 2.21 0 01-3 .76l-3.6-2.14a2.21 2.21 0 01-.83-3.01z" fill="#f7f2ed"/><path data-name="Path 388" d="M326.83 152.6a2.71 2.71 0 01-1.38-.38l-3.6-2.14a2.71 2.71 0 01-.94-3.73 2.78 2.78 0 013.74-1l3.6 2.14a2.71 2.71 0 01.94 3.73 2.75 2.75 0 01-2.36 1.38zm-3.57-6.6a1.7 1.7 0 00-1.47.83 1.73 1.73 0 00-.21 1.34 1.7 1.7 0 00.79 1.05l3.6 2.14a1.75 1.75 0 002.34-.59 1.73 1.73 0 00.21-1.34 1.7 1.7 0 00-.79-1.05l-3.6-2.14a1.71 1.71 0 00-.87-.24z" fill="#505b65"/><path data-name="Path 389" d="M298.76 159.91l.17-.07a8.85 8.85 0 004.81-11.56l-2.58-6.28-16.53 6.82 2.57 6.24a8.85 8.85 0 0011.56 4.85z" fill="#f7f2ed"/><path data-name="Path 390" d="M295.39 161.08a9.32 9.32 0 01-8.65-5.79l-2.77-6.7 17.45-7.2 2.76 6.7a9.36 9.36 0 01-5.08 12.21l-.17.07a9.29 9.29 0 01-3.54.71zm-10.11-11.95l2.38 5.78a8.33 8.33 0 007.72 5.17 8.31 8.31 0 003.18-.63l.17-.07a8.35 8.35 0 004.54-10.91l-2.38-5.78z" fill="#505b65"/><path data-name="Path 391" d="M301 147.6a2.21 2.21 0 001.2-2.89l-4.13-10a2.21 2.21 0 00-2.89-1.2 2.21 2.21 0 00-1.2 2.89l4.13 10a2.21 2.21 0 002.89 1.2z" fill="#f7f2ed"/><path data-name="Path 392" d="M300.17 148.27a2.7 2.7 0 01-2.51-1.68l-4.13-10A2.72 2.72 0 01295 133a2.68 2.68 0 013.58 1.46l4.13 10a2.71 2.71 0 01-1.47 3.54 2.74 2.74 0 01-1.07.27zm-4.09-14.45a1.7 1.7 0 00-.65.13 1.73 1.73 0 00-1 2.25l4.13 10a1.71 1.71 0 001.59 1.06 1.71 1.71 0 00.65-.13 1.74 1.74 0 001-.94 1.7 1.7 0 000-1.31l-4.13-10a1.71 1.71 0 00-1.59-1.06z" fill="#505b65"/><rect data-name="Rectangle 36" width="4.47" height="15.25" rx="2.21" transform="rotate(-22.37 495.755 -664.244)" fill="#f7f2ed"/><path data-name="Path 393" d="M297.12 152.6a2.7 2.7 0 01-2.51-1.68l-4.13-10a2.74 2.74 0 015.06-2.09l4.13 10a2.71 2.71 0 01-1.47 3.54 2.74 2.74 0 01-1.08.23zM293 138.15a1.73 1.73 0 00-1.62 2.38l4.13 10a1.71 1.71 0 001.58 1.06 1.71 1.71 0 00.65-.13 1.73 1.73 0 001-.94 1.71 1.71 0 000-1.31l-4.13-10a1.71 1.71 0 00-1.61-1.06z" fill="#505b65"/><rect data-name="Rectangle 37" width="4.47" height="15.25" rx="2.21" transform="rotate(-22.37 502.08 -653.726)" fill="#f7f2ed"/><path data-name="Path 394" d="M293.6 155.8a2.7 2.7 0 01-2.51-1.68l-4.13-10A2.74 2.74 0 01292 142l4.13 10a2.71 2.71 0 01-1.47 3.54 2.74 2.74 0 01-1.06.26zm-4.09-14.45a1.73 1.73 0 00-1.62 2.38l4.13 10a1.71 1.71 0 001.58 1.06 1.71 1.71 0 00.65-.13 1.73 1.73 0 001-.94 1.71 1.71 0 000-1.31l-4.13-10a1.71 1.71 0 00-1.61-1.06z" fill="#505b65"/><path data-name="Path 395" d="M289.91 155.86a2.21 2.21 0 001.2-2.89l-3.11-7.55a2.21 2.21 0 00-2.89-1.2 2.21 2.21 0 00-1.2 2.89l3.11 7.54a2.21 2.21 0 002.89 1.21z" fill="#f7f2ed"/><path data-name="Path 396" d="M289.07 156.53a2.71 2.71 0 01-2.51-1.68l-3.11-7.54a2.72 2.72 0 011.47-3.54 2.68 2.68 0 013.58 1.46l3.11 7.54a2.75 2.75 0 01-2.55 3.76zm-3.07-12a1.71 1.71 0 00-.65.13 1.73 1.73 0 00-1 .94 1.71 1.71 0 000 1.31l3.11 7.54a1.71 1.71 0 001.58 1.06 1.75 1.75 0 001.62-2.38l-3.11-7.54a1.71 1.71 0 00-1.55-1.04z" fill="#505b65"/><path data-name="Path 397" d="M307.1 146.61a2.21 2.21 0 00-3-.76l-3.6 2.14a2.21 2.21 0 00-.77 3 2.21 2.21 0 003 .76l3.6-2.14a2.21 2.21 0 00.77-3z" fill="#f7f2ed"/><path data-name="Path 398" d="M301.61 152.6a2.76 2.76 0 01-2.66-3.41 2.69 2.69 0 011.24-1.67l3.6-2.14a2.79 2.79 0 013.71.94 2.71 2.71 0 01-.92 3.76l-3.6 2.14a2.71 2.71 0 01-1.37.38zm3.57-6.61a1.71 1.71 0 00-.87.24l-3.6 2.14a1.741 1.741 0 00.9 3.22 1.71 1.71 0 00.87-.24l3.6-2.14a1.733 1.733 0 00-.9-3.21z" fill="#505b65"/><path data-name="Path 399" d="M392.57 173.51H74.07a12.57 12.57 0 019.86-4.76h162.66A22.18 22.18 0 01265 159h99.4a22.16 22.16 0 0118.37 9.79 12.56 12.56 0 019.8 4.72z" fill="#505b65"/><path data-name="Path 400" d="M125.12 9.94h-10.94a9.38 9.38 0 00-9.2 7.35L69.5 173.51h10.94l35.48-156.22a9.38 9.38 0 019.2-7.35z" fill="#fff" opacity=".8"/><path data-name="Path 401" d="M335.13 9.94h10.94a9.38 9.38 0 019.2 7.35l35.48 156.22h-10.94L344.33 17.29a9.38 9.38 0 00-9.2-7.35z" fill="#fff" opacity=".8"/><path data-name="Path 402" d="M406.61 174h-353L89.26 17.18A9.88 9.88 0 0199 9.44h262.31a9.88 9.88 0 019.69 7.74zM54.9 173h350.46L370 17.4a8.89 8.89 0 00-8.71-7H99a8.88 8.88 0 00-8.71 7z" fill="#505b65"/></g></g></svg>